<svg width="24" height="24" viewBox="0 0 24 24" fill="none" xmlns="http://www.w3.org/2000/svg">
<path d="M9.66667 8H14.3333M9.66667 12H14.3333M9.33856 18.2625L8.91205 17.8238C8.48881 17.3885 7.77846 17.4277 7.4057 17.907L6.78935 18.6994C6.20479 19.451 5 19.0376 5 18.0855V5C5 3.89543 5.89543 3 7 3H17C18.1046 3 19 3.89543 19 5V18.0855C19 19.0376 17.7952 19.451 17.2106 18.6994L16.5943 17.907C16.2215 17.4277 15.5112 17.3885 15.088 17.8238L14.6614 18.2625C14.2688 18.6664 13.6201 18.6664 13.2274 18.2625L12.717 17.7375C12.3243 17.3336 11.6757 17.3336 11.283 17.7375L10.7726 18.2625C10.3799 18.6664 9.73124 18.6664 9.33856 18.2625Z" stroke="#151619" stroke-width="2" stroke-linecap="round" stroke-linejoin="round"/>
</svg>
