<svg width="24" height="24" viewBox="0 0 24 24" fill="none" xmlns="http://www.w3.org/2000/svg">
<path d="M3 10.0704C3 9.40166 3.3342 8.7772 3.8906 8.40627L10.8906 3.7396C11.5624 3.29173 12.4376 3.29173 13.1094 3.7396L20.1094 8.40627C20.6658 8.7772 21 9.40166 21 10.0704V19C21 20.1046 20.1046 21 19 21H5C3.89543 21 3 20.1046 3 19V10.0704Z" stroke="#151619" stroke-width="2" stroke-linecap="round" stroke-linejoin="round"/>
<path d="M15 13C15 14.6569 13.6569 16 12 16C10.3431 16 9 14.6569 9 13C9 11.3431 10.3431 10 12 10C13.6569 10 15 11.3431 15 13Z" stroke="#151619" stroke-width="2" stroke-linecap="round" stroke-linejoin="round"/>
</svg>
