<svg width="24" height="24" viewBox="0 0 24 24" fill="none" xmlns="http://www.w3.org/2000/svg">
<path d="M8 9.2V7C8 4.79086 9.79086 3 12 3V3C14.2091 3 16 4.79086 16 7V9.2M14 15V15C14 13.8954 13.1046 13 12 13V13C10.8954 13 10 13.8954 10 15V15C10 16.1046 10.8954 17 12 17V17C13.1046 17 14 16.1046 14 15ZM6 21H18C19.1046 21 20 20.1046 20 19V11.2C20 10.0954 19.1046 9.2 18 9.2H6C4.89543 9.2 4 10.0954 4 11.2V19C4 20.1046 4.89543 21 6 21Z" stroke="#151619" stroke-width="2" stroke-linecap="round" stroke-linejoin="round"/>
</svg>
